<?xml version="1.0" encoding="iso-8859-1"?>
<!-- Generator: Adobe Illustrator 19.0.0, SVG Export Plug-In . SVG Version: 6.00 Build 0)  -->
<svg version="1.1" id="Layer_1" xmlns="http://www.w3.org/2000/svg" xmlns:xlink="http://www.w3.org/1999/xlink" x="0px" y="0px"
	 viewBox="0 0 503.186 503.186" style="enable-background:new 0 0 503.186 503.186;" xml:space="preserve">
<g transform="translate(7 1)">
	<path style="fill:#AAB1BA;" d="M431.404,463.786v34.133h-51.2v-17.067v-17.067l0,0c0-9.387,7.68-16.213,17.067-16.213h17.067
		C423.724,446.719,431.404,454.399,431.404,463.786L431.404,463.786z"/>
	<path style="fill:#F2EDDA;" d="M388.738,361.386c51.2,17.067,25.6,85.333,25.6,85.333h-17.067c-9.387,0-17.067,7.68-17.067,16.213
		v0.853v17.067h-34.133v-17.067l0,0c0-2.56-0.853-5.12-1.707-6.827l1.707-0.853c0,0,0-42.667,8.533-76.8
		c0,0,4.267-15.36,11.947-25.6l0.853-1.707L388.738,361.386z"/>
	<path style="fill:#AAB1BA;" d="M175.404,446.719h17.067c9.387,0,17.067,7.68,17.067,16.213v0.853v17.067v17.067h-51.2v-34.133l0,0
		C158.338,454.399,166.018,446.719,175.404,446.719"/>
	<path style="fill:#F2EDDA;" d="M223.191,352.852l20.48-8.533l0,0c2.56,0,5.973,0,8.533,0c0,0,34.133,0,42.667-17.067v136.533
		c0-9.387-7.68-16.213-17.067-16.213h-17.067c-9.387,0-17.067,7.68-17.067,16.213c0-5.12-0.853-52.907-8.533-84.48
		C235.138,378.452,230.871,361.386,223.191,352.852L223.191,352.852z M294.871,463.786V327.252
		c8.533,17.067,42.667,17.067,42.667,17.067c5.973,0,11.093-0.853,17.067-1.707v1.707l12.8,6.827l-0.853,1.707
		c-8.533,11.093-11.947,25.6-11.947,25.6c-8.533,34.133-8.533,76.8-8.533,76.8l-1.707,0.853c-2.56-5.973-8.533-9.387-15.36-9.387
		h-17.067C302.551,446.719,294.871,454.399,294.871,463.786z"/>
	<path style="fill:#AAB1BA;" d="M277.804,446.719c9.387,0,17.067,7.68,17.067,16.213v0.853v8.533v25.6h-51.2v-17.067v-17.067l0,0
		c0-9.387,7.68-16.213,17.067-16.213h17.067V446.719z"/>
	<path style="fill:#F2EDDA;" d="M223.191,352.852c7.68,8.533,11.947,25.6,11.947,25.6c8.533,32.427,8.533,80.213,8.533,84.48v0.853
		v17.067h-34.133v-17.067l0,0c0-9.387-7.68-16.213-17.067-16.213h-17.067c0,0-24.747-66.56,23.893-84.48
		c3.413,0.853,4.267,0.853,1.707-0.853L223.191,352.852L223.191,352.852z"/>
	<path style="fill:#AE938D;" d="M235.138,36.266c14.507-5.973,25.6-7.68,25.6-7.68c0-9.387,7.68-17.067,17.067-17.067
		c0.853,0,1.707,0,2.56,0c2.56-5.12,8.533-8.533,14.507-8.533c5.973,0,11.947,3.413,14.507,8.533c0.853,0,1.707,0,2.56,0
		c9.387,0,17.067,7.68,17.067,17.067c0,0,12.8,1.707,27.307,8.533c0,0,52.907-39.253,82.773-33.28
		c5.973,29.867-33.28,84.48-33.28,84.48s17.067,51.2,17.067,153.6v34.133c0,0-23.893-23.893-85.333-31.573
		c-12.8-1.707-26.453-2.56-42.667-2.56c-16.213,0-29.867,0.853-42.667,2.56c-61.44,7.68-85.333,31.573-85.333,31.573v-34.133
		c0-102.4,17.067-153.6,17.067-153.6s-39.253-54.613-33.28-84.48C180.524-2.134,235.138,36.266,235.138,36.266L235.138,36.266z"/>
	<path style="fill:#AAB1BA;" d="M329.004,446.719c6.827,0,12.8,4.267,15.36,9.387c0.853,2.56,1.707,4.267,1.707,6.827v0.853v17.067
		v17.067h-51.2v-25.6v-8.533l0,0c0-9.387,7.68-16.213,17.067-16.213h17.067V446.719z"/>
	<path style="fill:#F2EDDA;" d="M363.138,139.519c5.12,0,8.533,3.413,8.533,8.533c0,4.267-3.413,8.533-8.533,8.533
		c-4.267,0-8.533-4.267-8.533-8.533S358.871,139.519,363.138,139.519z M226.604,139.519c5.12,0,8.533,3.413,8.533,8.533
		c0,4.267-3.413,8.533-8.533,8.533c-4.267,0-8.533-4.267-8.533-8.533S222.338,139.519,226.604,139.519z"/>
	<path style="fill:#AE938D;" d="M73.004,369.919c8.533,3.413,11.093,22.187,7.68,31.573c-3.413,8.533-12.8,13.653-22.187,10.24
		c-8.533-3.413-13.653-12.8-10.24-22.187C51.671,381.012,64.471,366.506,73.004,369.919"/>
	<path style="fill:#F2EDDA;" d="M422.871,276.052c0,24.747-26.453,58.88-68.267,66.56c-5.12,0.853-11.093,1.707-17.067,1.707
		c0,0-34.133,0-42.667-17.067c-8.533,17.067-42.667,17.067-42.667,17.067c-2.56,0-5.973,0-8.533,0
		c-46.08-4.267-76.8-40.96-76.8-68.267c0,0,23.893-23.893,85.333-31.573c12.8-1.707,26.453-2.56,42.667-2.56
		c16.213,0,29.867,0.853,42.667,2.56C398.978,253.012,422.871,276.052,422.871,276.052"/>
</g>
<path style="fill:#51565F;" d="M438.404,503.186h-51.2c-2.56,0-4.267-1.707-4.267-4.267v-34.133v-0.853
	c0-11.093,9.387-20.48,21.333-20.48h13.653c2.56-8.533,10.24-36.693,0-56.32c-4.267-9.387-12.8-17.067-23.893-20.48
	c-2.56-0.853-3.413-3.413-2.56-5.12c0.853-2.56,3.413-3.413,5.12-2.56c13.653,4.267,23.893,12.8,29.013,24.747
	c10.24,22.187,4.267,49.493,0.853,60.587c8.533,2.56,15.36,10.24,15.36,19.627v0.853v34.133
	C442.671,501.479,440.964,503.186,438.404,503.186z M391.471,494.652h42.667v-29.867l0,0c0-6.827-5.973-12.8-12.8-12.8h-17.067
	c-6.827,0-12.8,5.12-12.8,12.8V494.652z M353.071,503.186h-102.4c-2.56,0-4.267-1.707-4.267-4.267v-34.133l-8.533-85.333
	c0-2.56,1.707-4.267,3.413-4.267c2.56,0,4.267,1.707,4.267,3.413l6.827,69.973c3.413-3.413,8.533-5.12,14.507-5.12h17.067
	c5.12,0,9.387,1.707,12.8,4.267v-68.267c0-2.56,1.707-4.267,4.267-4.267s4.267,1.707,4.267,4.267v68.267
	c3.413-2.56,7.68-4.267,12.8-4.267h17.067c5.12,0,9.387,1.707,12.8,4.267c0.853-14.507,1.707-44.373,8.533-69.12
	c0.853-2.56,2.56-3.413,5.12-3.413c2.56,0.853,3.413,2.56,3.413,5.12c-8.533,33.28-8.533,75.093-8.533,75.947s0,1.707-0.853,2.56
	c0.853,1.707,0.853,3.413,0.853,5.12v0.853v34.133C357.338,501.479,355.631,503.186,353.071,503.186z M306.138,494.652h42.667
	v-29.867l0,0c0-6.827-5.973-12.8-12.8-12.8h-17.067c-6.827,0-12.8,5.12-12.8,12.8V494.652z M254.938,494.652h42.667v-29.867l0,0
	c0-6.827-5.973-12.8-12.8-12.8h-17.067c-6.827,0-12.8,5.12-12.8,12.8V494.652z M216.538,503.186h-51.2
	c-2.56,0-4.267-1.707-4.267-4.267v-34.133v-0.853c0-9.387,6.827-17.067,15.36-19.627c-3.413-11.093-9.387-39.253,0.853-60.587
	c3.413-7.68,9.387-13.653,16.213-18.773c-59.733-12.8-95.573-11.093-107.52,5.12c7.68,7.68,8.533,25.6,5.973,34.133
	c-4.267,11.093-16.213,17.067-27.307,12.8c-11.093-4.267-17.067-16.213-12.8-27.307l0,0c1.707-5.12,5.973-11.947,11.093-16.213
	c5.12-5.12,10.24-6.827,15.36-6.827c17.92-29.013,79.36-18.773,124.587-8.533c1.707,0,2.56,0.853,4.267,0.853c0,0,0,0,0.853,0
	c0.853,0,1.707,0,3.413,0c1.707,0.853,5.12,2.56,4.267,5.973c-0.853,2.56-2.56,3.413-6.827,2.56
	c-10.24,4.267-17.067,10.24-21.333,19.627c-9.387,20.48-2.56,47.787,0,56.32h13.653c11.947,0,21.333,9.387,21.333,20.48v0.853
	v34.133C220.804,501.479,219.098,503.186,216.538,503.186z M169.604,494.652h42.667v-29.867l0,0c0-6.827-5.973-12.8-12.8-12.8
	h-17.067c-6.827,0-12.8,5.12-12.8,12.8V494.652z M59.524,392.252c-2.56,6.827,0.853,13.653,7.68,16.213s13.653-0.853,16.213-7.68
	c2.56-7.68,0.853-23.893-5.12-25.6l0,0c-2.56-0.853-5.973,0.853-10.24,4.267C64.644,382.866,61.231,387.986,59.524,392.252
	L59.524,392.252z M344.538,349.586c-1.707,0-29.867,0-42.667-13.653c-12.8,13.653-40.96,13.653-42.667,13.653
	c-54.613,0-89.6-42.667-89.6-72.533c0-0.853,0.853-2.56,0.853-3.413c0.853-0.853,24.747-23.893,84.48-32.427l16.213-118.613
	c0-2.56,2.56-4.267,5.12-3.413c2.56,0,3.413,1.707,3.413,4.267c0,0,0,0,0,0.853l-16.213,116.907
	c11.093-0.853,23.893-1.707,37.547-1.707s26.453,0.853,37.547,1.707l-16.213-116.907c0,0,0,0,0-0.853
	c0-1.707,1.707-4.267,3.413-4.267c2.56,0,4.267,1.707,5.12,3.413l16.213,118.613c59.733,8.533,83.627,31.573,84.48,32.427
	c0.853,0.853,0.853,1.707,0.853,3.413C434.138,306.919,399.151,349.586,344.538,349.586z M301.871,323.986
	c1.707,0,3.413,0.853,3.413,2.56c5.973,11.947,29.867,14.507,39.253,14.507c47.787,0,79.36-36.693,81.067-62.293
	c-6.827-5.973-42.667-31.573-123.733-31.573s-116.907,25.6-123.733,31.573c1.707,25.6,33.28,62.293,81.067,62.293
	c8.533,0,32.427-2.56,39.253-14.507C298.458,324.839,300.164,323.986,301.871,323.986z M327.471,306.919
	c-2.56,0-4.267-1.707-4.267-4.267v-8.533c0-2.56,1.707-4.267,4.267-4.267c2.56,0,4.267,1.707,4.267,4.267v8.533
	C331.738,305.212,330.031,306.919,327.471,306.919z M276.271,306.919c-2.56,0-4.267-1.707-4.267-4.267v-8.533
	c0-2.56,1.707-4.267,4.267-4.267s4.267,1.707,4.267,4.267v8.533C280.538,305.212,278.831,306.919,276.271,306.919z M429.871,247.186
	c-2.56,0-4.267-1.707-4.267-4.267c0-100.693-17.067-151.893-17.067-151.893c0-0.853,0-0.853,0-1.707c0-0.853,0.853-2.56,0.853-3.413
	c17.067-24.747,34.987-58.027,32.427-77.653c-23.04-2.56-57.173,19.627-70.827,29.013c9.387,5.12,18.773,11.093,27.307,20.48
	c1.707,1.707,1.707,4.267,0,5.973c-1.707,1.707-4.267,1.707-5.973,0c-17.92-18.773-41.813-26.453-52.053-29.013v20.48
	c0,2.56-1.707,4.267-4.267,4.267s-4.267-1.707-4.267-4.267v-25.6c0-7.68-6.827-13.653-13.653-12.8c-1.707,0-4.267-0.853-5.12-1.707
	c-2.56-4.267-6.827-6.827-11.093-6.827c-4.267,0-8.533,2.56-11.093,6.827c-0.853,1.707-2.56,2.56-4.267,2.56
	c-0.853,0-1.707,0-1.707,0c-6.827,0-12.8,5.973-12.8,12.8v25.6c0,2.56-1.707,4.267-4.267,4.267s-4.267-1.707-4.267-4.267v-20.48
	c-10.24,2.56-34.987,9.387-52.053,29.013c-1.707,1.707-4.267,1.707-5.973,0c-1.707-1.707-1.707-4.267,0-5.973
	c8.533-9.387,18.773-16.213,28.16-21.333c-14.507-9.387-49.493-30.72-72.533-28.16c-2.56,28.16,32.427,77.653,33.28,78.507
	c0.853,0.853,0.853,1.707,0.853,2.56c0,0.853,0,0.853,0,1.707c-2.56,9.387-17.067,58.88-17.067,151.893
	c0,2.56-1.707,4.267-4.267,4.267s-4.267-1.707-4.267-4.267c0-89.6,12.8-139.947,17.067-152.747
	c-6.827-10.24-38.4-57.173-33.28-86.187c0-1.707,1.707-3.413,3.413-3.413c29.013-5.973,75.947,24.747,86.187,32.427
	c9.387-3.413,17.067-5.973,21.333-6.827c1.707-10.24,10.24-17.92,21.333-17.92l0,0c4.267-5.12,10.24-8.533,17.067-8.533
	s12.8,3.413,17.067,8.533c10.24,0,19.627,7.68,21.333,17.92c4.267,0.853,12.8,3.413,23.04,6.827c10.24-7.68,55.467-38.4,84.48-33.28
	c1.707,0,3.413,1.707,3.413,3.413c5.12,26.453-20.48,68.267-33.28,86.187c3.413,10.24,17.067,61.44,17.067,152.747
	C434.138,245.479,432.431,247.186,429.871,247.186z M370.138,161.852c-6.827,0-12.8-5.973-12.8-12.8c0-6.827,5.973-12.8,12.8-12.8
	s12.8,5.973,12.8,12.8C382.938,155.879,376.964,161.852,370.138,161.852z M370.138,144.786c-2.56,0-4.267,1.707-4.267,4.267
	c0,2.56,1.707,4.267,4.267,4.267s4.267-1.707,4.267-4.267C374.404,146.493,372.698,144.786,370.138,144.786z M233.604,161.852
	c-6.827,0-12.8-5.973-12.8-12.8c0-6.827,5.973-12.8,12.8-12.8s12.8,5.973,12.8,12.8
	C246.404,155.879,240.431,161.852,233.604,161.852z M233.604,144.786c-2.56,0-4.267,1.707-4.267,4.267
	c0,2.56,1.707,4.267,4.267,4.267s4.267-1.707,4.267-4.267C237.871,146.493,236.164,144.786,233.604,144.786z"/>
<g>
</g>
<g>
</g>
<g>
</g>
<g>
</g>
<g>
</g>
<g>
</g>
<g>
</g>
<g>
</g>
<g>
</g>
<g>
</g>
<g>
</g>
<g>
</g>
<g>
</g>
<g>
</g>
<g>
</g>
</svg>
